<mxfile host="app.diagrams.net" modified="2021-07-17T01:02:46.873Z" agent="5.0 (Windows)" etag="m-g0_wuRprQS1d3w5APC" version="14.8.5" type="github">
  <diagram id="KxuiyelQ4g_LW83yEsCo" name="Page-1">
    <mxGraphModel dx="2844" dy="1526" grid="1" gridSize="10" guides="1" tooltips="1" connect="1" arrows="1" fold="1" page="1" pageScale="1" pageWidth="4681" pageHeight="3300" math="0" shadow="0">
      <root>
        <mxCell id="0" />
        <mxCell id="1" parent="0" />
        <mxCell id="44AiBCDxBOzTBdy34bFM-1" value="" style="rounded=0;whiteSpace=wrap;html=1;" parent="1" vertex="1">
          <mxGeometry x="80" y="80" width="40" height="160" as="geometry" />
        </mxCell>
        <mxCell id="44AiBCDxBOzTBdy34bFM-2" value="" style="rounded=0;whiteSpace=wrap;html=1;" parent="1" vertex="1">
          <mxGeometry x="80" y="120" width="40" height="40" as="geometry" />
        </mxCell>
        <mxCell id="44AiBCDxBOzTBdy34bFM-3" value="" style="rounded=0;whiteSpace=wrap;html=1;" parent="1" vertex="1">
          <mxGeometry x="80" y="160" width="40" height="40" as="geometry" />
        </mxCell>
        <mxCell id="44AiBCDxBOzTBdy34bFM-4" value="" style="rounded=0;whiteSpace=wrap;html=1;" parent="1" vertex="1">
          <mxGeometry x="80" y="200" width="40" height="40" as="geometry" />
        </mxCell>
        <mxCell id="44AiBCDxBOzTBdy34bFM-5" value="" style="rounded=0;whiteSpace=wrap;html=1;fillColor=#ffe6cc;strokeColor=#d79b00;" parent="1" vertex="1">
          <mxGeometry x="80" y="80" width="40" height="40" as="geometry" />
        </mxCell>
        <mxCell id="44AiBCDxBOzTBdy34bFM-6" value="&lt;div&gt;A&lt;/div&gt;" style="text;html=1;strokeColor=none;fillColor=none;align=center;verticalAlign=middle;whiteSpace=wrap;rounded=0;" parent="1" vertex="1">
          <mxGeometry x="80" y="90" width="40" height="20" as="geometry" />
        </mxCell>
        <mxCell id="44AiBCDxBOzTBdy34bFM-7" value="C" style="text;html=1;strokeColor=none;fillColor=none;align=center;verticalAlign=middle;whiteSpace=wrap;rounded=0;" parent="1" vertex="1">
          <mxGeometry x="80" y="130" width="40" height="20" as="geometry" />
        </mxCell>
        <mxCell id="44AiBCDxBOzTBdy34bFM-8" value="G" style="text;html=1;strokeColor=none;fillColor=none;align=center;verticalAlign=middle;whiteSpace=wrap;rounded=0;" parent="1" vertex="1">
          <mxGeometry x="80" y="170" width="40" height="20" as="geometry" />
        </mxCell>
        <mxCell id="44AiBCDxBOzTBdy34bFM-9" value="T" style="text;html=1;strokeColor=none;fillColor=none;align=center;verticalAlign=middle;whiteSpace=wrap;rounded=0;" parent="1" vertex="1">
          <mxGeometry x="80" y="210" width="40" height="20" as="geometry" />
        </mxCell>
        <mxCell id="44AiBCDxBOzTBdy34bFM-11" value="" style="rounded=0;whiteSpace=wrap;html=1;" parent="1" vertex="1">
          <mxGeometry x="120" y="80" width="40" height="160" as="geometry" />
        </mxCell>
        <mxCell id="44AiBCDxBOzTBdy34bFM-12" value="" style="rounded=0;whiteSpace=wrap;html=1;fillColor=#dae8fc;strokeColor=#6c8ebf;" parent="1" vertex="1">
          <mxGeometry x="120" y="120" width="40" height="40" as="geometry" />
        </mxCell>
        <mxCell id="44AiBCDxBOzTBdy34bFM-13" value="" style="rounded=0;whiteSpace=wrap;html=1;" parent="1" vertex="1">
          <mxGeometry x="120" y="160" width="40" height="40" as="geometry" />
        </mxCell>
        <mxCell id="44AiBCDxBOzTBdy34bFM-14" value="" style="rounded=0;whiteSpace=wrap;html=1;" parent="1" vertex="1">
          <mxGeometry x="120" y="200" width="40" height="40" as="geometry" />
        </mxCell>
        <mxCell id="44AiBCDxBOzTBdy34bFM-15" value="" style="rounded=0;whiteSpace=wrap;html=1;" parent="1" vertex="1">
          <mxGeometry x="120" y="80" width="40" height="40" as="geometry" />
        </mxCell>
        <mxCell id="44AiBCDxBOzTBdy34bFM-16" value="&lt;div&gt;A&lt;/div&gt;" style="text;html=1;strokeColor=none;fillColor=none;align=center;verticalAlign=middle;whiteSpace=wrap;rounded=0;" parent="1" vertex="1">
          <mxGeometry x="120" y="90" width="40" height="20" as="geometry" />
        </mxCell>
        <mxCell id="44AiBCDxBOzTBdy34bFM-17" value="C" style="text;html=1;strokeColor=none;fillColor=none;align=center;verticalAlign=middle;whiteSpace=wrap;rounded=0;" parent="1" vertex="1">
          <mxGeometry x="120" y="130" width="40" height="20" as="geometry" />
        </mxCell>
        <mxCell id="44AiBCDxBOzTBdy34bFM-18" value="G" style="text;html=1;strokeColor=none;fillColor=none;align=center;verticalAlign=middle;whiteSpace=wrap;rounded=0;" parent="1" vertex="1">
          <mxGeometry x="120" y="170" width="40" height="20" as="geometry" />
        </mxCell>
        <mxCell id="44AiBCDxBOzTBdy34bFM-19" value="T" style="text;html=1;strokeColor=none;fillColor=none;align=center;verticalAlign=middle;whiteSpace=wrap;rounded=0;" parent="1" vertex="1">
          <mxGeometry x="120" y="210" width="40" height="20" as="geometry" />
        </mxCell>
        <mxCell id="44AiBCDxBOzTBdy34bFM-20" value="" style="rounded=0;whiteSpace=wrap;html=1;" parent="1" vertex="1">
          <mxGeometry x="120" y="80" width="40" height="160" as="geometry" />
        </mxCell>
        <mxCell id="44AiBCDxBOzTBdy34bFM-21" value="" style="rounded=0;whiteSpace=wrap;html=1;fillColor=#dae8fc;strokeColor=#6c8ebf;" parent="1" vertex="1">
          <mxGeometry x="120" y="120" width="40" height="40" as="geometry" />
        </mxCell>
        <mxCell id="44AiBCDxBOzTBdy34bFM-22" value="" style="rounded=0;whiteSpace=wrap;html=1;" parent="1" vertex="1">
          <mxGeometry x="120" y="160" width="40" height="40" as="geometry" />
        </mxCell>
        <mxCell id="44AiBCDxBOzTBdy34bFM-23" value="" style="rounded=0;whiteSpace=wrap;html=1;" parent="1" vertex="1">
          <mxGeometry x="120" y="200" width="40" height="40" as="geometry" />
        </mxCell>
        <mxCell id="44AiBCDxBOzTBdy34bFM-24" value="" style="rounded=0;whiteSpace=wrap;html=1;" parent="1" vertex="1">
          <mxGeometry x="120" y="80" width="40" height="40" as="geometry" />
        </mxCell>
        <mxCell id="44AiBCDxBOzTBdy34bFM-25" value="&lt;div&gt;A&lt;/div&gt;" style="text;html=1;strokeColor=none;fillColor=none;align=center;verticalAlign=middle;whiteSpace=wrap;rounded=0;" parent="1" vertex="1">
          <mxGeometry x="120" y="90" width="40" height="20" as="geometry" />
        </mxCell>
        <mxCell id="44AiBCDxBOzTBdy34bFM-26" value="C" style="text;html=1;strokeColor=none;fillColor=none;align=center;verticalAlign=middle;whiteSpace=wrap;rounded=0;" parent="1" vertex="1">
          <mxGeometry x="120" y="130" width="40" height="20" as="geometry" />
        </mxCell>
        <mxCell id="44AiBCDxBOzTBdy34bFM-27" value="G" style="text;html=1;strokeColor=none;fillColor=none;align=center;verticalAlign=middle;whiteSpace=wrap;rounded=0;" parent="1" vertex="1">
          <mxGeometry x="120" y="170" width="40" height="20" as="geometry" />
        </mxCell>
        <mxCell id="44AiBCDxBOzTBdy34bFM-28" value="T" style="text;html=1;strokeColor=none;fillColor=none;align=center;verticalAlign=middle;whiteSpace=wrap;rounded=0;" parent="1" vertex="1">
          <mxGeometry x="120" y="210" width="40" height="20" as="geometry" />
        </mxCell>
        <mxCell id="44AiBCDxBOzTBdy34bFM-29" value="" style="rounded=0;whiteSpace=wrap;html=1;" parent="1" vertex="1">
          <mxGeometry x="160" y="80" width="40" height="160" as="geometry" />
        </mxCell>
        <mxCell id="44AiBCDxBOzTBdy34bFM-30" value="" style="rounded=0;whiteSpace=wrap;html=1;fillColor=#dae8fc;strokeColor=#6c8ebf;" parent="1" vertex="1">
          <mxGeometry x="160" y="120" width="40" height="40" as="geometry" />
        </mxCell>
        <mxCell id="44AiBCDxBOzTBdy34bFM-31" value="" style="rounded=0;whiteSpace=wrap;html=1;" parent="1" vertex="1">
          <mxGeometry x="160" y="160" width="40" height="40" as="geometry" />
        </mxCell>
        <mxCell id="44AiBCDxBOzTBdy34bFM-32" value="" style="rounded=0;whiteSpace=wrap;html=1;" parent="1" vertex="1">
          <mxGeometry x="160" y="200" width="40" height="40" as="geometry" />
        </mxCell>
        <mxCell id="44AiBCDxBOzTBdy34bFM-33" value="" style="rounded=0;whiteSpace=wrap;html=1;" parent="1" vertex="1">
          <mxGeometry x="160" y="80" width="40" height="40" as="geometry" />
        </mxCell>
        <mxCell id="44AiBCDxBOzTBdy34bFM-34" value="&lt;div&gt;A&lt;/div&gt;" style="text;html=1;strokeColor=none;fillColor=none;align=center;verticalAlign=middle;whiteSpace=wrap;rounded=0;" parent="1" vertex="1">
          <mxGeometry x="160" y="90" width="40" height="20" as="geometry" />
        </mxCell>
        <mxCell id="44AiBCDxBOzTBdy34bFM-35" value="C" style="text;html=1;strokeColor=none;fillColor=none;align=center;verticalAlign=middle;whiteSpace=wrap;rounded=0;" parent="1" vertex="1">
          <mxGeometry x="160" y="130" width="40" height="20" as="geometry" />
        </mxCell>
        <mxCell id="44AiBCDxBOzTBdy34bFM-36" value="G" style="text;html=1;strokeColor=none;fillColor=none;align=center;verticalAlign=middle;whiteSpace=wrap;rounded=0;" parent="1" vertex="1">
          <mxGeometry x="160" y="170" width="40" height="20" as="geometry" />
        </mxCell>
        <mxCell id="44AiBCDxBOzTBdy34bFM-37" value="T" style="text;html=1;strokeColor=none;fillColor=none;align=center;verticalAlign=middle;whiteSpace=wrap;rounded=0;" parent="1" vertex="1">
          <mxGeometry x="160" y="210" width="40" height="20" as="geometry" />
        </mxCell>
        <mxCell id="44AiBCDxBOzTBdy34bFM-38" value="" style="rounded=0;whiteSpace=wrap;html=1;" parent="1" vertex="1">
          <mxGeometry x="160" y="80" width="40" height="160" as="geometry" />
        </mxCell>
        <mxCell id="44AiBCDxBOzTBdy34bFM-39" value="" style="rounded=0;whiteSpace=wrap;html=1;" parent="1" vertex="1">
          <mxGeometry x="160" y="120" width="40" height="40" as="geometry" />
        </mxCell>
        <mxCell id="44AiBCDxBOzTBdy34bFM-40" value="" style="rounded=0;whiteSpace=wrap;html=1;fillColor=#f8cecc;strokeColor=#b85450;" parent="1" vertex="1">
          <mxGeometry x="160" y="160" width="40" height="40" as="geometry" />
        </mxCell>
        <mxCell id="44AiBCDxBOzTBdy34bFM-41" value="" style="rounded=0;whiteSpace=wrap;html=1;" parent="1" vertex="1">
          <mxGeometry x="160" y="200" width="40" height="40" as="geometry" />
        </mxCell>
        <mxCell id="44AiBCDxBOzTBdy34bFM-42" value="" style="rounded=0;whiteSpace=wrap;html=1;" parent="1" vertex="1">
          <mxGeometry x="160" y="80" width="40" height="40" as="geometry" />
        </mxCell>
        <mxCell id="44AiBCDxBOzTBdy34bFM-43" value="&lt;div&gt;A&lt;/div&gt;" style="text;html=1;strokeColor=none;fillColor=none;align=center;verticalAlign=middle;whiteSpace=wrap;rounded=0;" parent="1" vertex="1">
          <mxGeometry x="160" y="90" width="40" height="20" as="geometry" />
        </mxCell>
        <mxCell id="44AiBCDxBOzTBdy34bFM-44" value="C" style="text;html=1;strokeColor=none;fillColor=none;align=center;verticalAlign=middle;whiteSpace=wrap;rounded=0;" parent="1" vertex="1">
          <mxGeometry x="160" y="130" width="40" height="20" as="geometry" />
        </mxCell>
        <mxCell id="44AiBCDxBOzTBdy34bFM-45" value="G" style="text;html=1;strokeColor=none;fillColor=none;align=center;verticalAlign=middle;whiteSpace=wrap;rounded=0;" parent="1" vertex="1">
          <mxGeometry x="160" y="170" width="40" height="20" as="geometry" />
        </mxCell>
        <mxCell id="44AiBCDxBOzTBdy34bFM-46" value="T" style="text;html=1;strokeColor=none;fillColor=none;align=center;verticalAlign=middle;whiteSpace=wrap;rounded=0;" parent="1" vertex="1">
          <mxGeometry x="160" y="210" width="40" height="20" as="geometry" />
        </mxCell>
        <mxCell id="44AiBCDxBOzTBdy34bFM-47" value="" style="rounded=0;whiteSpace=wrap;html=1;" parent="1" vertex="1">
          <mxGeometry x="200" y="80" width="40" height="160" as="geometry" />
        </mxCell>
        <mxCell id="44AiBCDxBOzTBdy34bFM-48" value="" style="rounded=0;whiteSpace=wrap;html=1;fillColor=#dae8fc;strokeColor=#6c8ebf;" parent="1" vertex="1">
          <mxGeometry x="200" y="120" width="40" height="40" as="geometry" />
        </mxCell>
        <mxCell id="44AiBCDxBOzTBdy34bFM-49" value="" style="rounded=0;whiteSpace=wrap;html=1;" parent="1" vertex="1">
          <mxGeometry x="200" y="160" width="40" height="40" as="geometry" />
        </mxCell>
        <mxCell id="44AiBCDxBOzTBdy34bFM-50" value="" style="rounded=0;whiteSpace=wrap;html=1;" parent="1" vertex="1">
          <mxGeometry x="200" y="200" width="40" height="40" as="geometry" />
        </mxCell>
        <mxCell id="44AiBCDxBOzTBdy34bFM-51" value="" style="rounded=0;whiteSpace=wrap;html=1;" parent="1" vertex="1">
          <mxGeometry x="200" y="80" width="40" height="40" as="geometry" />
        </mxCell>
        <mxCell id="44AiBCDxBOzTBdy34bFM-52" value="&lt;div&gt;A&lt;/div&gt;" style="text;html=1;strokeColor=none;fillColor=none;align=center;verticalAlign=middle;whiteSpace=wrap;rounded=0;" parent="1" vertex="1">
          <mxGeometry x="200" y="90" width="40" height="20" as="geometry" />
        </mxCell>
        <mxCell id="44AiBCDxBOzTBdy34bFM-53" value="C" style="text;html=1;strokeColor=none;fillColor=none;align=center;verticalAlign=middle;whiteSpace=wrap;rounded=0;" parent="1" vertex="1">
          <mxGeometry x="200" y="130" width="40" height="20" as="geometry" />
        </mxCell>
        <mxCell id="44AiBCDxBOzTBdy34bFM-54" value="G" style="text;html=1;strokeColor=none;fillColor=none;align=center;verticalAlign=middle;whiteSpace=wrap;rounded=0;" parent="1" vertex="1">
          <mxGeometry x="200" y="170" width="40" height="20" as="geometry" />
        </mxCell>
        <mxCell id="44AiBCDxBOzTBdy34bFM-55" value="T" style="text;html=1;strokeColor=none;fillColor=none;align=center;verticalAlign=middle;whiteSpace=wrap;rounded=0;" parent="1" vertex="1">
          <mxGeometry x="200" y="210" width="40" height="20" as="geometry" />
        </mxCell>
        <mxCell id="44AiBCDxBOzTBdy34bFM-56" value="" style="rounded=0;whiteSpace=wrap;html=1;" parent="1" vertex="1">
          <mxGeometry x="200" y="80" width="40" height="160" as="geometry" />
        </mxCell>
        <mxCell id="44AiBCDxBOzTBdy34bFM-57" value="" style="rounded=0;whiteSpace=wrap;html=1;" parent="1" vertex="1">
          <mxGeometry x="200" y="120" width="40" height="40" as="geometry" />
        </mxCell>
        <mxCell id="44AiBCDxBOzTBdy34bFM-58" value="" style="rounded=0;whiteSpace=wrap;html=1;" parent="1" vertex="1">
          <mxGeometry x="200" y="160" width="40" height="40" as="geometry" />
        </mxCell>
        <mxCell id="44AiBCDxBOzTBdy34bFM-59" value="" style="rounded=0;whiteSpace=wrap;html=1;fillColor=#d5e8d4;strokeColor=#82b366;" parent="1" vertex="1">
          <mxGeometry x="200" y="200" width="40" height="40" as="geometry" />
        </mxCell>
        <mxCell id="44AiBCDxBOzTBdy34bFM-60" value="" style="rounded=0;whiteSpace=wrap;html=1;" parent="1" vertex="1">
          <mxGeometry x="200" y="80" width="40" height="40" as="geometry" />
        </mxCell>
        <mxCell id="44AiBCDxBOzTBdy34bFM-61" value="&lt;div&gt;A&lt;/div&gt;" style="text;html=1;strokeColor=none;fillColor=none;align=center;verticalAlign=middle;whiteSpace=wrap;rounded=0;" parent="1" vertex="1">
          <mxGeometry x="200" y="90" width="40" height="20" as="geometry" />
        </mxCell>
        <mxCell id="RfQtuhZZYuHVcFHUgVU_-364" style="edgeStyle=none;rounded=1;jumpSize=20;orthogonalLoop=1;jettySize=auto;html=1;strokeWidth=1;exitX=1;exitY=0;exitDx=0;exitDy=0;" parent="1" source="44AiBCDxBOzTBdy34bFM-58" edge="1">
          <mxGeometry relative="1" as="geometry">
            <mxPoint x="360" y="160" as="targetPoint" />
          </mxGeometry>
        </mxCell>
        <mxCell id="44AiBCDxBOzTBdy34bFM-62" value="C" style="text;html=1;align=center;verticalAlign=middle;whiteSpace=wrap;rounded=0;" parent="1" vertex="1">
          <mxGeometry x="200" y="130" width="40" height="20" as="geometry" />
        </mxCell>
        <mxCell id="44AiBCDxBOzTBdy34bFM-63" value="G" style="text;html=1;strokeColor=none;fillColor=none;align=center;verticalAlign=middle;whiteSpace=wrap;rounded=0;" parent="1" vertex="1">
          <mxGeometry x="200" y="170" width="40" height="20" as="geometry" />
        </mxCell>
        <mxCell id="44AiBCDxBOzTBdy34bFM-64" value="T" style="text;html=1;strokeColor=none;fillColor=none;align=center;verticalAlign=middle;whiteSpace=wrap;rounded=0;" parent="1" vertex="1">
          <mxGeometry x="200" y="210" width="40" height="20" as="geometry" />
        </mxCell>
        <mxCell id="44AiBCDxBOzTBdy34bFM-65" value="&lt;div&gt;Promoter in one-hot&lt;/div&gt;" style="text;html=1;strokeColor=none;fillColor=none;align=center;verticalAlign=middle;whiteSpace=wrap;rounded=0;" parent="1" vertex="1">
          <mxGeometry x="80" y="250" width="160" height="20" as="geometry" />
        </mxCell>
        <mxCell id="44AiBCDxBOzTBdy34bFM-66" value="" style="rounded=0;whiteSpace=wrap;html=1;" parent="1" vertex="1">
          <mxGeometry x="80" y="520" width="40" height="160" as="geometry" />
        </mxCell>
        <mxCell id="44AiBCDxBOzTBdy34bFM-67" value="" style="rounded=0;whiteSpace=wrap;html=1;" parent="1" vertex="1">
          <mxGeometry x="80" y="560" width="40" height="40" as="geometry" />
        </mxCell>
        <mxCell id="44AiBCDxBOzTBdy34bFM-68" value="" style="rounded=0;whiteSpace=wrap;html=1;" parent="1" vertex="1">
          <mxGeometry x="80" y="600" width="40" height="40" as="geometry" />
        </mxCell>
        <mxCell id="44AiBCDxBOzTBdy34bFM-69" value="" style="rounded=0;whiteSpace=wrap;html=1;" parent="1" vertex="1">
          <mxGeometry x="80" y="640" width="40" height="40" as="geometry" />
        </mxCell>
        <mxCell id="44AiBCDxBOzTBdy34bFM-70" value="" style="rounded=0;whiteSpace=wrap;html=1;fillColor=#ffe6cc;strokeColor=#d79b00;" parent="1" vertex="1">
          <mxGeometry x="80" y="520" width="40" height="40" as="geometry" />
        </mxCell>
        <mxCell id="44AiBCDxBOzTBdy34bFM-71" value="&lt;div&gt;A&lt;/div&gt;" style="text;html=1;strokeColor=none;fillColor=none;align=center;verticalAlign=middle;whiteSpace=wrap;rounded=0;" parent="1" vertex="1">
          <mxGeometry x="80" y="530" width="40" height="20" as="geometry" />
        </mxCell>
        <mxCell id="44AiBCDxBOzTBdy34bFM-72" value="C" style="text;html=1;strokeColor=none;fillColor=none;align=center;verticalAlign=middle;whiteSpace=wrap;rounded=0;" parent="1" vertex="1">
          <mxGeometry x="80" y="570" width="40" height="20" as="geometry" />
        </mxCell>
        <mxCell id="44AiBCDxBOzTBdy34bFM-73" value="G" style="text;html=1;strokeColor=none;fillColor=none;align=center;verticalAlign=middle;whiteSpace=wrap;rounded=0;" parent="1" vertex="1">
          <mxGeometry x="80" y="610" width="40" height="20" as="geometry" />
        </mxCell>
        <mxCell id="44AiBCDxBOzTBdy34bFM-74" value="T" style="text;html=1;strokeColor=none;fillColor=none;align=center;verticalAlign=middle;whiteSpace=wrap;rounded=0;" parent="1" vertex="1">
          <mxGeometry x="80" y="650" width="40" height="20" as="geometry" />
        </mxCell>
        <mxCell id="44AiBCDxBOzTBdy34bFM-75" value="" style="rounded=0;whiteSpace=wrap;html=1;" parent="1" vertex="1">
          <mxGeometry x="120" y="520" width="40" height="160" as="geometry" />
        </mxCell>
        <mxCell id="44AiBCDxBOzTBdy34bFM-76" value="" style="rounded=0;whiteSpace=wrap;html=1;fillColor=#dae8fc;strokeColor=#6c8ebf;" parent="1" vertex="1">
          <mxGeometry x="120" y="560" width="40" height="40" as="geometry" />
        </mxCell>
        <mxCell id="44AiBCDxBOzTBdy34bFM-77" value="" style="rounded=0;whiteSpace=wrap;html=1;" parent="1" vertex="1">
          <mxGeometry x="120" y="600" width="40" height="40" as="geometry" />
        </mxCell>
        <mxCell id="44AiBCDxBOzTBdy34bFM-78" value="" style="rounded=0;whiteSpace=wrap;html=1;" parent="1" vertex="1">
          <mxGeometry x="120" y="640" width="40" height="40" as="geometry" />
        </mxCell>
        <mxCell id="44AiBCDxBOzTBdy34bFM-79" value="" style="rounded=0;whiteSpace=wrap;html=1;" parent="1" vertex="1">
          <mxGeometry x="120" y="520" width="40" height="40" as="geometry" />
        </mxCell>
        <mxCell id="44AiBCDxBOzTBdy34bFM-80" value="&lt;div&gt;A&lt;/div&gt;" style="text;html=1;strokeColor=none;fillColor=none;align=center;verticalAlign=middle;whiteSpace=wrap;rounded=0;" parent="1" vertex="1">
          <mxGeometry x="120" y="530" width="40" height="20" as="geometry" />
        </mxCell>
        <mxCell id="44AiBCDxBOzTBdy34bFM-81" value="C" style="text;html=1;strokeColor=none;fillColor=none;align=center;verticalAlign=middle;whiteSpace=wrap;rounded=0;" parent="1" vertex="1">
          <mxGeometry x="120" y="570" width="40" height="20" as="geometry" />
        </mxCell>
        <mxCell id="44AiBCDxBOzTBdy34bFM-82" value="G" style="text;html=1;strokeColor=none;fillColor=none;align=center;verticalAlign=middle;whiteSpace=wrap;rounded=0;" parent="1" vertex="1">
          <mxGeometry x="120" y="610" width="40" height="20" as="geometry" />
        </mxCell>
        <mxCell id="44AiBCDxBOzTBdy34bFM-83" value="T" style="text;html=1;strokeColor=none;fillColor=none;align=center;verticalAlign=middle;whiteSpace=wrap;rounded=0;" parent="1" vertex="1">
          <mxGeometry x="120" y="650" width="40" height="20" as="geometry" />
        </mxCell>
        <mxCell id="44AiBCDxBOzTBdy34bFM-84" value="" style="rounded=0;whiteSpace=wrap;html=1;" parent="1" vertex="1">
          <mxGeometry x="120" y="520" width="40" height="160" as="geometry" />
        </mxCell>
        <mxCell id="44AiBCDxBOzTBdy34bFM-85" value="" style="rounded=0;whiteSpace=wrap;html=1;fillColor=#dae8fc;strokeColor=#6c8ebf;" parent="1" vertex="1">
          <mxGeometry x="120" y="560" width="40" height="40" as="geometry" />
        </mxCell>
        <mxCell id="44AiBCDxBOzTBdy34bFM-86" value="" style="rounded=0;whiteSpace=wrap;html=1;" parent="1" vertex="1">
          <mxGeometry x="120" y="600" width="40" height="40" as="geometry" />
        </mxCell>
        <mxCell id="44AiBCDxBOzTBdy34bFM-87" value="" style="rounded=0;whiteSpace=wrap;html=1;" parent="1" vertex="1">
          <mxGeometry x="120" y="640" width="40" height="40" as="geometry" />
        </mxCell>
        <mxCell id="44AiBCDxBOzTBdy34bFM-88" value="" style="rounded=0;whiteSpace=wrap;html=1;" parent="1" vertex="1">
          <mxGeometry x="120" y="520" width="40" height="40" as="geometry" />
        </mxCell>
        <mxCell id="44AiBCDxBOzTBdy34bFM-89" value="&lt;div&gt;A&lt;/div&gt;" style="text;html=1;strokeColor=none;fillColor=none;align=center;verticalAlign=middle;whiteSpace=wrap;rounded=0;" parent="1" vertex="1">
          <mxGeometry x="120" y="530" width="40" height="20" as="geometry" />
        </mxCell>
        <mxCell id="44AiBCDxBOzTBdy34bFM-90" value="C" style="text;html=1;strokeColor=none;fillColor=none;align=center;verticalAlign=middle;whiteSpace=wrap;rounded=0;" parent="1" vertex="1">
          <mxGeometry x="120" y="570" width="40" height="20" as="geometry" />
        </mxCell>
        <mxCell id="44AiBCDxBOzTBdy34bFM-91" value="G" style="text;html=1;strokeColor=none;fillColor=none;align=center;verticalAlign=middle;whiteSpace=wrap;rounded=0;" parent="1" vertex="1">
          <mxGeometry x="120" y="610" width="40" height="20" as="geometry" />
        </mxCell>
        <mxCell id="44AiBCDxBOzTBdy34bFM-92" value="T" style="text;html=1;strokeColor=none;fillColor=none;align=center;verticalAlign=middle;whiteSpace=wrap;rounded=0;" parent="1" vertex="1">
          <mxGeometry x="120" y="650" width="40" height="20" as="geometry" />
        </mxCell>
        <mxCell id="44AiBCDxBOzTBdy34bFM-93" value="" style="rounded=0;whiteSpace=wrap;html=1;" parent="1" vertex="1">
          <mxGeometry x="160" y="520" width="40" height="160" as="geometry" />
        </mxCell>
        <mxCell id="44AiBCDxBOzTBdy34bFM-94" value="" style="rounded=0;whiteSpace=wrap;html=1;fillColor=#dae8fc;strokeColor=#6c8ebf;" parent="1" vertex="1">
          <mxGeometry x="160" y="560" width="40" height="40" as="geometry" />
        </mxCell>
        <mxCell id="44AiBCDxBOzTBdy34bFM-95" value="" style="rounded=0;whiteSpace=wrap;html=1;" parent="1" vertex="1">
          <mxGeometry x="160" y="600" width="40" height="40" as="geometry" />
        </mxCell>
        <mxCell id="44AiBCDxBOzTBdy34bFM-96" value="" style="rounded=0;whiteSpace=wrap;html=1;" parent="1" vertex="1">
          <mxGeometry x="160" y="640" width="40" height="40" as="geometry" />
        </mxCell>
        <mxCell id="44AiBCDxBOzTBdy34bFM-97" value="" style="rounded=0;whiteSpace=wrap;html=1;" parent="1" vertex="1">
          <mxGeometry x="160" y="520" width="40" height="40" as="geometry" />
        </mxCell>
        <mxCell id="44AiBCDxBOzTBdy34bFM-98" value="&lt;div&gt;A&lt;/div&gt;" style="text;html=1;strokeColor=none;fillColor=none;align=center;verticalAlign=middle;whiteSpace=wrap;rounded=0;" parent="1" vertex="1">
          <mxGeometry x="160" y="530" width="40" height="20" as="geometry" />
        </mxCell>
        <mxCell id="44AiBCDxBOzTBdy34bFM-99" value="C" style="text;html=1;strokeColor=none;fillColor=none;align=center;verticalAlign=middle;whiteSpace=wrap;rounded=0;" parent="1" vertex="1">
          <mxGeometry x="160" y="570" width="40" height="20" as="geometry" />
        </mxCell>
        <mxCell id="44AiBCDxBOzTBdy34bFM-100" value="G" style="text;html=1;strokeColor=none;fillColor=none;align=center;verticalAlign=middle;whiteSpace=wrap;rounded=0;" parent="1" vertex="1">
          <mxGeometry x="160" y="610" width="40" height="20" as="geometry" />
        </mxCell>
        <mxCell id="44AiBCDxBOzTBdy34bFM-101" value="T" style="text;html=1;strokeColor=none;fillColor=none;align=center;verticalAlign=middle;whiteSpace=wrap;rounded=0;" parent="1" vertex="1">
          <mxGeometry x="160" y="650" width="40" height="20" as="geometry" />
        </mxCell>
        <mxCell id="44AiBCDxBOzTBdy34bFM-102" value="" style="rounded=0;whiteSpace=wrap;html=1;" parent="1" vertex="1">
          <mxGeometry x="160" y="520" width="40" height="160" as="geometry" />
        </mxCell>
        <mxCell id="44AiBCDxBOzTBdy34bFM-103" value="" style="rounded=0;whiteSpace=wrap;html=1;" parent="1" vertex="1">
          <mxGeometry x="160" y="560" width="40" height="40" as="geometry" />
        </mxCell>
        <mxCell id="44AiBCDxBOzTBdy34bFM-104" value="" style="rounded=0;whiteSpace=wrap;html=1;fillColor=#f8cecc;strokeColor=#b85450;" parent="1" vertex="1">
          <mxGeometry x="160" y="600" width="40" height="40" as="geometry" />
        </mxCell>
        <mxCell id="44AiBCDxBOzTBdy34bFM-105" value="" style="rounded=0;whiteSpace=wrap;html=1;" parent="1" vertex="1">
          <mxGeometry x="160" y="640" width="40" height="40" as="geometry" />
        </mxCell>
        <mxCell id="44AiBCDxBOzTBdy34bFM-106" value="" style="rounded=0;whiteSpace=wrap;html=1;" parent="1" vertex="1">
          <mxGeometry x="160" y="520" width="40" height="40" as="geometry" />
        </mxCell>
        <mxCell id="44AiBCDxBOzTBdy34bFM-107" value="&lt;div&gt;A&lt;/div&gt;" style="text;html=1;strokeColor=none;fillColor=none;align=center;verticalAlign=middle;whiteSpace=wrap;rounded=0;" parent="1" vertex="1">
          <mxGeometry x="160" y="530" width="40" height="20" as="geometry" />
        </mxCell>
        <mxCell id="44AiBCDxBOzTBdy34bFM-108" value="C" style="text;html=1;strokeColor=none;fillColor=none;align=center;verticalAlign=middle;whiteSpace=wrap;rounded=0;" parent="1" vertex="1">
          <mxGeometry x="160" y="570" width="40" height="20" as="geometry" />
        </mxCell>
        <mxCell id="44AiBCDxBOzTBdy34bFM-109" value="G" style="text;html=1;strokeColor=none;fillColor=none;align=center;verticalAlign=middle;whiteSpace=wrap;rounded=0;" parent="1" vertex="1">
          <mxGeometry x="160" y="610" width="40" height="20" as="geometry" />
        </mxCell>
        <mxCell id="44AiBCDxBOzTBdy34bFM-110" value="T" style="text;html=1;strokeColor=none;fillColor=none;align=center;verticalAlign=middle;whiteSpace=wrap;rounded=0;" parent="1" vertex="1">
          <mxGeometry x="160" y="650" width="40" height="20" as="geometry" />
        </mxCell>
        <mxCell id="44AiBCDxBOzTBdy34bFM-111" value="" style="rounded=0;whiteSpace=wrap;html=1;" parent="1" vertex="1">
          <mxGeometry x="200" y="520" width="40" height="160" as="geometry" />
        </mxCell>
        <mxCell id="44AiBCDxBOzTBdy34bFM-112" value="" style="rounded=0;whiteSpace=wrap;html=1;fillColor=#dae8fc;strokeColor=#6c8ebf;" parent="1" vertex="1">
          <mxGeometry x="200" y="560" width="40" height="40" as="geometry" />
        </mxCell>
        <mxCell id="44AiBCDxBOzTBdy34bFM-113" value="" style="rounded=0;whiteSpace=wrap;html=1;" parent="1" vertex="1">
          <mxGeometry x="200" y="600" width="40" height="40" as="geometry" />
        </mxCell>
        <mxCell id="44AiBCDxBOzTBdy34bFM-114" value="" style="rounded=0;whiteSpace=wrap;html=1;" parent="1" vertex="1">
          <mxGeometry x="200" y="640" width="40" height="40" as="geometry" />
        </mxCell>
        <mxCell id="44AiBCDxBOzTBdy34bFM-115" value="" style="rounded=0;whiteSpace=wrap;html=1;" parent="1" vertex="1">
          <mxGeometry x="200" y="520" width="40" height="40" as="geometry" />
        </mxCell>
        <mxCell id="44AiBCDxBOzTBdy34bFM-116" value="&lt;div&gt;A&lt;/div&gt;" style="text;html=1;strokeColor=none;fillColor=none;align=center;verticalAlign=middle;whiteSpace=wrap;rounded=0;" parent="1" vertex="1">
          <mxGeometry x="200" y="530" width="40" height="20" as="geometry" />
        </mxCell>
        <mxCell id="44AiBCDxBOzTBdy34bFM-117" value="C" style="text;html=1;strokeColor=none;fillColor=none;align=center;verticalAlign=middle;whiteSpace=wrap;rounded=0;" parent="1" vertex="1">
          <mxGeometry x="200" y="570" width="40" height="20" as="geometry" />
        </mxCell>
        <mxCell id="44AiBCDxBOzTBdy34bFM-118" value="G" style="text;html=1;strokeColor=none;fillColor=none;align=center;verticalAlign=middle;whiteSpace=wrap;rounded=0;" parent="1" vertex="1">
          <mxGeometry x="200" y="610" width="40" height="20" as="geometry" />
        </mxCell>
        <mxCell id="44AiBCDxBOzTBdy34bFM-119" value="T" style="text;html=1;strokeColor=none;fillColor=none;align=center;verticalAlign=middle;whiteSpace=wrap;rounded=0;" parent="1" vertex="1">
          <mxGeometry x="200" y="650" width="40" height="20" as="geometry" />
        </mxCell>
        <mxCell id="44AiBCDxBOzTBdy34bFM-120" value="" style="rounded=0;whiteSpace=wrap;html=1;" parent="1" vertex="1">
          <mxGeometry x="200" y="520" width="40" height="160" as="geometry" />
        </mxCell>
        <mxCell id="44AiBCDxBOzTBdy34bFM-121" value="" style="rounded=0;whiteSpace=wrap;html=1;" parent="1" vertex="1">
          <mxGeometry x="200" y="560" width="40" height="40" as="geometry" />
        </mxCell>
        <mxCell id="44AiBCDxBOzTBdy34bFM-122" value="" style="rounded=0;whiteSpace=wrap;html=1;" parent="1" vertex="1">
          <mxGeometry x="200" y="600" width="40" height="40" as="geometry" />
        </mxCell>
        <mxCell id="44AiBCDxBOzTBdy34bFM-123" value="" style="rounded=0;whiteSpace=wrap;html=1;fillColor=#d5e8d4;strokeColor=#82b366;" parent="1" vertex="1">
          <mxGeometry x="200" y="640" width="40" height="40" as="geometry" />
        </mxCell>
        <mxCell id="44AiBCDxBOzTBdy34bFM-124" value="" style="rounded=0;whiteSpace=wrap;html=1;" parent="1" vertex="1">
          <mxGeometry x="200" y="520" width="40" height="40" as="geometry" />
        </mxCell>
        <mxCell id="44AiBCDxBOzTBdy34bFM-125" value="&lt;div&gt;A&lt;/div&gt;" style="text;html=1;strokeColor=none;fillColor=none;align=center;verticalAlign=middle;whiteSpace=wrap;rounded=0;" parent="1" vertex="1">
          <mxGeometry x="200" y="530" width="40" height="20" as="geometry" />
        </mxCell>
        <mxCell id="RfQtuhZZYuHVcFHUgVU_-365" style="edgeStyle=none;rounded=1;jumpSize=20;orthogonalLoop=1;jettySize=auto;html=1;entryX=0;entryY=0;entryDx=0;entryDy=0;strokeWidth=1;exitX=1;exitY=0;exitDx=0;exitDy=0;" parent="1" source="44AiBCDxBOzTBdy34bFM-122" edge="1">
          <mxGeometry relative="1" as="geometry">
            <mxPoint x="360" y="600" as="targetPoint" />
          </mxGeometry>
        </mxCell>
        <mxCell id="44AiBCDxBOzTBdy34bFM-126" value="C" style="text;html=1;align=center;verticalAlign=middle;whiteSpace=wrap;rounded=0;" parent="1" vertex="1">
          <mxGeometry x="200" y="570" width="40" height="20" as="geometry" />
        </mxCell>
        <mxCell id="44AiBCDxBOzTBdy34bFM-127" value="G" style="text;html=1;strokeColor=none;fillColor=none;align=center;verticalAlign=middle;whiteSpace=wrap;rounded=0;" parent="1" vertex="1">
          <mxGeometry x="200" y="610" width="40" height="20" as="geometry" />
        </mxCell>
        <mxCell id="44AiBCDxBOzTBdy34bFM-128" value="T" style="text;html=1;strokeColor=none;fillColor=none;align=center;verticalAlign=middle;whiteSpace=wrap;rounded=0;" parent="1" vertex="1">
          <mxGeometry x="200" y="650" width="40" height="20" as="geometry" />
        </mxCell>
        <mxCell id="44AiBCDxBOzTBdy34bFM-129" value="&lt;div&gt;Enhancer in one-hot&lt;/div&gt;" style="text;html=1;strokeColor=none;fillColor=none;align=center;verticalAlign=middle;whiteSpace=wrap;rounded=0;" parent="1" vertex="1">
          <mxGeometry x="80" y="690" width="160" height="20" as="geometry" />
        </mxCell>
      </root>
    </mxGraphModel>
  </diagram>
</mxfile>
